<mxfile host="app.diagrams.net" modified="2024-01-16T15:41:11.461Z" agent="Mozilla/5.0 (Windows NT 10.0; Win64; x64) AppleWebKit/537.36 (KHTML, like Gecko) Chrome/119.0.0.0 Safari/537.36 OPR/105.0.0.0" version="22.1.19" etag="XdiZEPK4nG690CN6csl2" type="github">
  <diagram name="PÃ¡gina-1" id="-78MK_t7vZxQyMquAhtc">
    <mxGraphModel>
      <root>
        <mxCell id="0" />
        <mxCell id="1" parent="0" />
      </root>
    </mxGraphModel>
  </diagram>
</mxfile>
